HIERARCHY
ROOT Hips
{
	OFFSET 0.000000 0.000000 0.000000 
	CHANNELS 6 Xposition Yposition Zposition Zrotation Yrotation Xrotation
	JOINT LeftUpLeg
	{
		OFFSET 1.363060 -1.794630 0.839290 
		CHANNELS 3 Zrotation Yrotation Xrotation
		JOINT LeftLeg
		{
			OFFSET 2.448110 -6.726130 0.000000 
			CHANNELS 3 Zrotation Yrotation Xrotation
			JOINT LeftFoot
			{
				OFFSET 2.562200 -7.039590 0.000000 
				CHANNELS 3 Zrotation Yrotation Xrotation
				JOINT LeftToeBase
				{
					OFFSET 0.157640 -0.433110 2.322550 
					CHANNELS 3 Zrotation Yrotation Xrotation
					End Site
					{
						OFFSET 0.000000 0.000000 0.000000 
					}
				}
			}
		}
	}
	JOINT RightUpLeg
	{
		OFFSET -1.305520 -1.794630 0.839290 
		CHANNELS 3 Zrotation Yrotation Xrotation
		JOINT RightLeg
		{
			OFFSET -2.542530 -6.985550 0.000000 
			CHANNELS 3 Zrotation Yrotation Xrotation
			JOINT RightFoot
			{
				OFFSET -2.568260 -7.056230 0.000000 
				CHANNELS 3 Zrotation Yrotation Xrotation
				JOINT RightToeBase
				{
					OFFSET -0.164730 -0.452590 2.363150 
					CHANNELS 3 Zrotation Yrotation Xrotation
					End Site
					{
						OFFSET 0.000000 0.000000 0.000000 
					}
				}
			}
		}
	}
	JOINT Spine
	{
		OFFSET 0.028270 2.035590 -0.193380 
		CHANNELS 3 Zrotation Yrotation Xrotation
		JOINT Spine1
		{
			OFFSET 0.056720 2.048850 -0.042750 
			CHANNELS 3 Zrotation Yrotation Xrotation
			JOINT Neck1
			{
				OFFSET -0.054170 1.746240 0.172020 
				CHANNELS 3 Zrotation Yrotation Xrotation
				JOINT Head
				{
					OFFSET 0.104070 1.761360 -0.123970 
					CHANNELS 3 Zrotation Yrotation Xrotation
					End Site
					{
						OFFSET 0.000000 0.000000 0.000000 
					}
				}
			}
			JOINT LeftArm
			{
				OFFSET 3.362410 1.200890 -0.311210 
				CHANNELS 3 Zrotation Yrotation Xrotation
				JOINT LeftForeArm
				{
					OFFSET 4.983000 -0.000000 -0.000000 
					CHANNELS 3 Zrotation Yrotation Xrotation
					JOINT LeftHand
					{
						OFFSET 3.483560 -0.000000 -0.000000 
						CHANNELS 3 Zrotation Yrotation Xrotation
						JOINT LeftHandIndex1
						{
							OFFSET 0.715260 -0.000000 -0.000000 
							CHANNELS 3 Zrotation Yrotation Xrotation
							End Site
							{
								OFFSET 0.000000 0.000000 0.000000 
							}
						}
					}
				}
			}
			JOINT RightArm
			{
				OFFSET -3.136600 1.374050 -0.404650 
				CHANNELS 3 Zrotation Yrotation Xrotation
				JOINT RightForeArm
				{
					OFFSET -5.241900 -0.000000 -0.000000 
					CHANNELS 3 Zrotation Yrotation Xrotation
					JOINT RightHand
					{
						OFFSET -3.444170 -0.000000 -0.000000 
						CHANNELS 3 Zrotation Yrotation Xrotation
						JOINT RightHandIndex1
						{
							OFFSET -0.622530 -0.000000 -0.000000 
							CHANNELS 3 Zrotation Yrotation Xrotation
							End Site
							{
								OFFSET 0.000000 0.000000 0.000000 
							}
						}
					}
				}
			}
		}
	}
}
MOTION
Frames: 10
Frame Time: 0.041667
3.783012 16.718342 2.201472 -176.868296 -73.946116 179.024973 -15.426195 26.743007 -27.461756 6.514298 15.672339 48.915367 -1.179187 10.365537 -20.152059 0.243500 3.175200 8.767000 9.131567 -15.328563 -45.494805 -7.252574 -16.229831 50.854398 2.796465 -14.269544 -18.568177 -0.008600 -0.599100 1.646300 -0.719591 -0.033036 -8.350134 -0.624267 0.161704 -15.743082 2.102944 -14.382475 -0.169170 0.002900 -7.548200 4.703000 6.005737 9.084243 20.250720 8.510581 -15.039284 -2.740259 0.690323 -2.822961 16.929933 -7.125000 0.000000 0.000000 -0.686303 5.660886 35.898601 -22.043643 32.230349 -8.089018 0.081444 -0.933542 12.214376 7.125000 0.000000 0.000000 
3.797505 16.694458 2.177704 -177.114803 -74.199859 179.094141 -15.303202 26.724794 -27.409296 6.618831 15.756480 49.253773 -1.119028 10.166931 -20.131825 0.225300 3.055100 8.432300 9.473043 -15.478096 -46.063234 -8.511081 -17.050616 54.910552 2.321931 -13.048485 -18.597112 -0.004000 -0.407500 1.119700 -0.670114 -0.107394 -8.164187 -0.482559 0.167364 -15.710194 2.288268 -14.536738 0.463163 0.009900 -7.601000 4.887400 6.179805 8.921497 20.182385 8.534031 -15.044507 -2.754654 0.754075 -2.869431 16.740728 -7.125000 0.000000 0.000000 -0.695272 6.572043 35.395713 -19.966061 30.079306 -6.876443 0.060720 -0.996102 12.485793 7.125000 0.000000 0.000000 
3.811533 16.670343 2.148719 -177.429301 -74.493791 179.263147 -15.185277 26.631514 -27.360310 6.718928 15.841048 49.588418 -1.062468 9.987184 -20.129240 0.209700 2.948300 8.135000 9.734583 -15.549384 -46.431224 -9.743388 -17.753683 58.764387 1.891944 -11.865112 -18.572643 -0.001300 -0.233600 0.641900 -0.643987 -0.195389 -7.988990 -0.335476 0.166655 -15.659027 2.458444 -14.686458 1.065004 0.013200 -7.651300 5.063000 6.377653 8.741254 20.067322 8.558375 -15.044001 -2.767948 0.823010 -2.925883 16.602626 -7.125000 0.000000 0.000000 -0.663741 7.397104 34.790344 -18.104607 28.042827 -5.848804 0.035009 -1.038691 12.505998 7.125000 0.000000 0.000000 
3.824751 16.646575 2.114401 -177.793390 -74.828228 179.527798 -15.072917 26.469057 -27.325938 6.812920 15.923416 49.911461 -1.008370 9.820488 -20.140416 0.197700 2.863500 7.898900 9.935025 -15.549556 -46.591149 -10.896235 -18.331356 62.289856 1.502093 -10.695143 -18.456951 -0.000100 -0.052400 0.144100 -0.640262 -0.292955 -7.824635 -0.185364 0.159939 -15.579214 2.616308 -14.834321 1.629766 0.014400 -7.700800 5.227700 6.595045 8.539964 19.912429 8.582313 -15.036352 -2.778957 0.887885 -2.978475 16.555099 -7.125000 0.000000 0.000000 -0.587462 8.121126 34.048809 -16.444146 26.146685 -4.985073 0.005849 -1.060061 12.317827 7.125000 0.000000 0.000000 
3.836692 16.623503 2.074750 -178.190693 -75.204707 179.876430 -14.962976 26.246376 -27.313980 6.900479 16.001976 50.218671 -0.957295 9.665215 -20.157713 0.188100 2.793100 7.703300 10.092496 -15.477735 -46.527458 -11.911439 -18.783608 65.347151 1.139830 -9.502216 -18.247421 -0.000400 0.130700 -0.359200 -0.656280 -0.396937 -7.671936 -0.033441 0.147851 -15.465942 2.749813 -14.980593 2.161078 0.010100 -7.750100 5.380800 6.824651 8.314158 19.728033 8.607279 -15.024812 -2.787896 0.944885 -3.023170 16.610531 -7.125000 0.000000 0.000000 -0.465626 8.737616 33.139003 -14.970009 24.410221 -4.264609 -0.026498 -1.059084 12.002927 7.125000 0.000000 0.000000 
3.846895 16.601358 2.029765 -178.572824 -75.621187 -179.737907 -14.840403 25.977933 -27.325974 6.982099 16.074874 50.506379 -0.908319 9.511991 -20.167275 0.179900 2.731900 7.533200 10.231756 -15.318423 -46.212473 -12.724035 -19.116484 67.775341 0.806352 -8.308355 -17.968294 -0.002200 0.299700 -0.823400 -0.684115 -0.501703 -7.530807 0.120400 0.132081 -15.317693 2.852549 -15.124685 2.659115 -0.000700 -7.799900 5.521600 7.055284 8.066414 19.532903 8.634898 -15.013886 -2.795508 0.988232 -3.051613 16.776577 -7.125000 0.000000 0.000000 -0.304302 9.245247 32.035346 -13.670100 22.848383 -3.669373 -0.066334 -1.033849 11.681547 7.125000 0.000000 0.000000 
3.854547 16.580373 1.979215 -178.926017 -76.075079 -179.335739 -14.697176 25.682503 -27.358267 7.057792 16.140096 50.769786 -0.860620 9.350941 -20.153565 0.171600 2.668900 7.358200 10.370400 -15.059609 -45.617587 -13.267274 -19.338256 69.402362 0.513266 -7.180227 -17.646733 -0.004900 0.453500 -1.246100 -0.718610 -0.603701 -7.402048 0.277307 0.114301 -15.139419 2.914188 -15.260002 3.135381 -0.020000 -7.847700 5.652000 7.276681 7.795105 19.345656 8.666085 -15.006912 -2.802220 1.015879 -3.059537 17.021905 -7.125000 0.000000 0.000000 -0.110781 9.647406 30.750441 -12.532724 21.467589 -3.181514 -0.115998 -0.982986 11.464950 7.125000 0.000000 0.000000 
3.859301 16.561823 1.923100 -179.241916 -76.562175 -178.932125 -14.527416 25.382222 -27.402359 7.123315 16.193003 50.989194 -0.817770 9.182077 -20.088841 0.160800 2.583400 7.121100 10.519474 -14.682589 -44.719000 -13.485168 -19.456991 70.082922 0.274261 -6.203541 -17.321408 -0.008000 0.577800 -1.587700 -0.755078 -0.699241 -7.288260 0.440386 0.096569 -14.942314 2.943383 -15.381275 3.589990 -0.043700 -7.891300 5.771600 7.479622 7.503310 19.189305 8.708616 -15.016889 -2.812117 1.035178 -3.060111 17.281055 -7.125000 0.000000 0.000000 0.113652 9.948344 29.319164 -11.556335 20.279179 -2.788060 -0.179962 -0.902355 11.388328 7.125000 0.000000 0.000000 
3.860228 16.546519 1.860956 -179.545675 -77.083133 -178.508655 -14.331736 25.098458 -27.449319 7.175068 16.230364 51.149479 -0.778400 8.990278 -19.950081 0.146900 2.469800 6.805800 10.675848 -14.174715 -43.504192 -13.346728 -19.475792 69.739162 0.103940 -5.477537 -17.050969 -0.011000 0.675900 -1.857500 -0.792763 -0.792017 -7.186145 0.612595 0.077989 -14.729756 2.926517 -15.480842 4.057810 -0.079300 -7.926300 5.892000 7.660522 7.199894 19.080131 8.767458 -15.052657 -2.828183 1.050561 -3.058063 17.489645 -7.125000 0.000000 0.000000 0.374598 10.161526 27.777735 -10.733615 19.283106 -2.475950 -0.260951 -0.789106 11.431563 7.125000 0.000000 0.000000 
3.856518 16.539446 1.793479 -179.869624 -77.630789 -178.042272 -14.118437 24.856661 -27.482251 7.207048 16.248485 51.230057 -0.743295 8.773616 -19.724947 0.128600 2.312000 6.368800 10.831818 -13.559925 -42.016146 -12.881817 -19.396033 68.458363 0.031882 -5.105278 -16.778270 -0.016700 0.834900 -2.294700 -0.833445 -0.882009 -7.092788 0.792812 0.059066 -14.508162 2.864729 -15.550678 4.569537 -0.129100 -7.947800 6.024700 7.816573 6.891691 19.012332 8.845615 -15.119902 -2.852647 1.067178 -3.059795 17.605752 -7.125000 0.000000 0.000000 0.683153 10.300026 26.168469 -10.057293 18.475403 -2.234531 -0.359083 -0.641159 11.505816 7.125000 0.000000 0.000000 
